<svg width="36" height="36" viewBox="0 0 36 36" fill="none" xmlns="http://www.w3.org/2000/svg">
<g clip-path="url(#clip0_133_5)">
<path d="M32 5H4C2.93913 5 1.92172 5.42143 1.17157 6.17157C0.421427 6.92172 0 7.93913 0 9L0 27C0 28.0609 0.421427 29.0783 1.17157 29.8284C1.92172 30.5786 2.93913 31 4 31H32C33.0609 31 34.0783 30.5786 34.8284 29.8284C35.5786 29.0783 36 28.0609 36 27V9C36 7.93913 35.5786 6.92172 34.8284 6.17157C34.0783 5.42143 33.0609 5 32 5V5Z" fill="#006C35"/>
<path d="M8.91899 14.05C9.55099 14.11 9.20199 12.981 9.43099 12.776C9.47399 12.675 9.55399 12.674 9.55999 12.802V13.76C9.55399 14.072 9.75899 14.163 9.91799 14.228C10.084 14.215 10.194 14.221 10.259 14.382L10.337 16.04C10.337 16.04 10.721 16.15 10.739 15.107C10.758 14.495 10.617 13.983 10.7 13.864C10.703 13.747 10.852 13.74 10.956 13.797C11.121 13.913 11.195 14.057 11.451 14C11.842 13.893 12.076 13.703 12.082 13.403C12.059 13.118 12.027 12.833 11.904 12.548C11.921 12.496 11.829 12.362 11.846 12.31C11.916 12.42 12.023 12.411 12.047 12.31C11.981 12.091 11.878 11.881 11.71 11.79C11.572 11.668 11.37 11.693 11.296 11.947C11.262 12.239 11.402 12.587 11.614 12.87C11.659 12.981 11.723 13.165 11.695 13.331C11.582 13.395 11.468 13.369 11.374 13.269C11.374 13.269 11.063 13.036 11.063 12.984C11.146 12.456 11.082 12.396 11.036 12.25C11.004 12.048 10.908 11.983 10.83 11.845C10.752 11.763 10.647 11.763 10.597 11.845C10.459 12.083 10.523 12.595 10.623 12.824C10.694 13.034 10.804 13.167 10.752 13.167C10.709 13.286 10.621 13.258 10.557 13.121C10.465 12.837 10.447 12.414 10.447 12.223C10.419 11.987 10.389 11.482 10.234 11.354C10.139 11.225 9.99799 11.287 9.94899 11.406C9.93899 11.64 9.93699 11.875 9.96399 12.092C10.07 12.471 10.104 12.805 10.156 13.194C10.17 13.715 9.85499 13.42 9.86899 13.162C9.94199 12.827 9.92299 12.299 9.85799 12.165C9.80699 12.032 9.74599 11.998 9.62199 12.02C9.52399 12.012 9.26999 12.29 9.19799 12.75C9.19799 12.75 9.13699 12.987 9.11099 13.198C9.07599 13.436 8.91999 13.604 8.80999 13.165C8.71499 12.846 8.65699 12.059 8.49799 12.243C8.45199 12.858 8.39699 13.94 8.91899 14.05V14.05Z" fill="white"/>
<path d="M9.86987 14.499C9.34987 14.509 8.58887 15.182 8.56787 15.555C9.11587 15.291 9.65487 15.037 10.2129 14.765C10.1229 14.63 10.2079 14.509 9.86987 14.499Z" fill="white"/>
<path d="M12.7369 16.516C12.9779 15.713 12.6979 15.121 12.8289 15.124C13.1059 15.423 13.4939 15.164 13.5789 15.06C13.6159 15.008 13.7069 14.974 13.7709 15.042C13.9879 15.198 14.3699 15.124 14.4489 14.85C14.4989 14.5748 14.5296 14.2965 14.5409 14.017C14.3639 14.072 14.2319 14.109 14.2199 14.182L14.1829 14.42C14.1679 14.497 14.0149 14.5 14.0089 14.402C13.9419 14.097 13.6639 14.057 13.4959 14.53C13.3829 14.622 13.1789 14.64 13.1569 14.503C13.1839 14.186 13.0559 14.143 12.7999 14.292C12.7179 13.663 12.6349 13.062 12.5529 12.433C12.6599 12.43 12.7579 12.509 12.8549 12.387C12.7479 12.054 12.5219 11.374 12.3969 11.325C12.3359 11.251 12.2839 11.297 12.2049 11.316C12.0709 11.359 11.9459 11.475 11.9849 11.7C12.1439 12.665 12.2479 13.4 12.4059 14.365C12.4299 14.478 12.3359 14.627 12.2139 14.612C12.0069 14.472 11.9549 14.188 11.6009 14.2C11.3439 14.203 11.0509 14.481 11.0149 14.75C10.9719 14.963 10.9569 15.195 11.0149 15.382C11.1949 15.598 11.4119 15.577 11.6009 15.528C11.7559 15.464 11.8849 15.308 11.9389 15.345C11.9759 15.39 11.9479 15.903 11.2069 16.297C10.7579 16.498 10.4009 16.544 10.2089 16.178C10.0899 15.949 10.2179 15.079 9.92493 15.281C9.05793 17.516 11.9549 17.826 12.2789 15.373C12.3099 15.272 12.4319 15.171 12.4529 15.336C12.3859 17.558 10.2119 17.711 9.84293 17.012C9.75093 16.847 9.72393 16.481 9.71493 16.261C9.65993 15.824 9.43093 15.992 9.39493 16.425C9.35793 16.666 9.36793 16.734 9.36793 16.965C9.48293 18.72 12.2829 17.966 12.7369 16.516V16.516ZM11.6569 14.998C11.6389 15.032 11.5599 15.018 11.5019 15.018C11.4359 15.015 11.4049 15.004 11.3649 14.951C11.3469 14.891 11.4029 14.834 11.4279 14.789C11.4589 14.736 11.6259 14.681 11.6849 14.829C11.6959 14.8571 11.699 14.8876 11.6941 14.9173C11.6892 14.9471 11.6763 14.9749 11.6569 14.998V14.998Z" fill="white"/>
<path d="M13.602 13.009C13.776 12.945 14.601 12.002 14.601 12.002C14.558 11.965 14.52 11.938 14.477 11.901C14.431 11.861 14.436 11.821 14.477 11.782C14.681 11.663 14.616 11.402 14.509 11.283C14.4398 11.2491 14.3636 11.2317 14.2865 11.2324C14.2094 11.2331 14.1336 11.2518 14.065 11.287C13.922 11.424 13.888 11.644 14.001 11.782C14.111 11.834 14.221 11.945 14.148 12.006C13.811 12.366 12.887 12.987 12.994 13.009C13.017 13.039 13.584 13.038 13.602 13.009V13.009ZM14.213 11.528C14.266 11.515 14.334 11.562 14.366 11.632C14.398 11.702 14.381 11.769 14.329 11.782H14.327C14.275 11.795 14.207 11.748 14.175 11.678C14.144 11.607 14.161 11.541 14.213 11.528ZM8.86199 17.258C8.72599 17.535 8.66899 17.345 8.65699 17.19C8.64136 16.9297 8.65444 16.6685 8.69599 16.411C8.72999 16.191 8.69599 16.258 8.62599 16.347C8.31699 16.839 8.28999 17.575 8.46099 17.794C8.55099 17.898 8.69999 17.944 8.81099 17.91C9.00499 17.826 9.08999 17.432 9.04399 17.289C8.97799 17.188 8.92699 17.172 8.86199 17.258ZM19.043 12.05C19.399 12.528 19.737 13.015 20.068 13.511C20.133 13.941 20.18 14.361 20.208 14.778C20.263 15.582 20.279 16.452 20.229 17.299C20.379 17.305 20.622 17.055 20.706 16.69C20.761 16.185 20.686 15.286 20.681 14.988C20.6744 14.8012 20.6654 14.6145 20.654 14.428C21.048 15.072 21.432 15.746 21.807 16.495C21.944 16.431 21.914 15.665 21.834 15.557C21.534 14.914 21.121 14.278 20.989 14.034C20.94 13.944 20.773 13.688 20.574 13.395C20.5569 13.1612 20.5289 12.9282 20.49 12.697C20.428 12.269 20.667 12.744 20.634 12.495C20.557 12.067 20.319 11.778 20.041 11.386C19.951 11.259 19.954 11.233 19.815 11.417C19.7659 11.5272 19.7432 11.6475 19.749 11.768C19.7056 11.7042 19.6592 11.6425 19.61 11.583C19.4591 11.4528 19.3074 11.3235 19.155 11.195C19.054 11.123 18.808 10.993 18.764 11.209C18.7435 11.3604 18.751 11.5143 18.786 11.663C18.812 11.77 18.967 11.948 19.043 12.05V12.05ZM19.783 12.026C19.802 12.109 19.822 12.192 19.835 12.277L19.85 12.358C19.808 12.2994 19.7644 12.242 19.719 12.186C19.555 11.992 19.691 12.034 19.783 12.026V12.026Z" fill="white"/>
<path d="M21.9189 16.693C21.5709 17.056 21.0689 17.503 20.5229 17.71C20.4639 17.776 20.6689 18.059 20.9329 18.059C21.3759 18.007 21.7659 17.758 22.1269 17.103C22.2239 16.951 22.3939 16.624 22.3979 16.37C22.4309 14.884 22.3239 13.727 22.1009 12.653C22.086 12.5668 22.0901 12.4784 22.1129 12.394C22.1409 12.36 22.2389 12.394 22.2909 12.31C22.3659 12.232 22.0899 11.592 21.9319 11.346C21.8759 11.236 21.8569 11.162 21.7639 11.359C21.6659 11.519 21.6009 11.798 21.6089 12.058C21.8199 13.521 21.8849 14.802 22.0229 16.265C22.0339 16.406 22.0129 16.612 21.9189 16.693V16.693ZM27.7489 12.983C27.7339 12.879 27.6879 12.637 27.7059 12.606C27.7339 12.532 27.8789 12.614 27.9309 12.529C28.0069 12.452 27.5569 11.874 27.3999 11.628C27.3429 11.518 27.3239 11.444 27.2309 11.641C27.1329 11.801 27.0989 12.088 27.1379 12.34C27.3729 13.929 27.5479 15.123 27.5839 16.532C27.5629 16.666 27.5589 16.738 27.4959 16.906C27.3569 17.084 27.2039 17.306 27.0589 17.414C26.9149 17.521 26.6079 17.624 26.5069 17.703C26.1899 17.888 26.1889 18.099 26.4469 18.106C26.8889 18.054 27.4129 18.018 27.7739 17.472C27.8709 17.32 27.9859 16.907 27.9909 16.653C28.0239 15.167 27.9719 14.057 27.7489 12.983V12.983ZM24.3979 14.22C24.4019 14.016 24.4209 13.746 24.4319 13.577C24.4369 13.514 24.4519 13.443 24.5119 13.427C24.5729 13.411 24.6809 13.489 24.6819 13.423C24.6699 13.294 24.6439 13.102 24.5709 13.011C24.4709 12.863 24.2059 12.899 24.1589 13.131C24.1599 13.217 24.1989 13.263 24.1919 13.341C24.1799 13.385 24.1339 13.415 24.0249 13.363C24.0429 13.347 23.9539 13.224 23.9539 13.224C23.8689 13.172 23.7549 13.227 23.6819 13.274C23.6555 13.3244 23.6397 13.3797 23.6356 13.4365C23.6315 13.4933 23.639 13.5503 23.6579 13.604C23.7779 13.831 24.1969 14.216 24.3979 14.22V14.22Z" fill="white"/>
<path d="M24.2569 12.481C24.5499 12.84 24.8489 13.204 25.1499 13.574C25.2149 14.4 25.2319 15.076 25.2959 15.902C25.2869 16.252 25.1789 16.557 25.0759 16.601C25.0759 16.601 24.9209 16.691 24.8169 16.592C24.7409 16.561 24.4379 16.087 24.4379 16.087C24.2829 15.945 24.1809 15.985 24.0709 16.087C23.7669 16.38 23.6299 16.93 23.4239 17.308C23.3699 17.393 23.2199 17.465 23.0529 17.302C22.6299 16.723 22.8779 15.9 22.8259 16.112C22.4489 16.537 22.6149 17.24 22.6999 17.392C22.8239 17.64 22.9249 17.8 23.1669 17.923C23.3869 18.085 23.5589 17.983 23.6529 17.87C23.8749 17.639 23.8779 17.054 23.9819 16.936C24.0539 16.723 24.2389 16.759 24.3279 16.854C24.4094 16.969 24.5175 17.0627 24.6429 17.127C24.8499 17.31 25.0969 17.343 25.3399 17.176C25.5059 17.083 25.6149 16.962 25.7119 16.723C25.8199 16.435 25.7609 15.111 25.7389 14.317C25.8939 14.517 26.0449 14.726 26.1979 14.935C26.2649 15.598 26.3029 16.258 26.2809 16.932C26.2649 17.067 26.7509 16.532 26.7469 16.278C26.7449 16.073 26.7469 15.887 26.7469 15.712C26.9809 16.064 27.2089 16.427 27.4229 16.811C27.5569 16.741 27.5129 15.986 27.4279 15.882C27.1809 15.468 26.8519 15.037 26.6249 14.729C26.6099 14.69 26.6019 14.646 26.5839 14.609C26.4929 14.398 26.5499 14.228 26.5069 14.004C26.4649 13.779 26.4759 13.443 26.4109 13.176C26.3929 13.072 26.3389 12.738 26.3549 12.707C26.3809 12.632 26.4809 12.709 26.5299 12.623C26.6029 12.543 26.2769 11.698 26.1109 11.456C26.0509 11.348 25.9429 11.385 25.8089 11.561C25.6859 11.677 25.7319 11.941 25.7789 12.192C25.8959 12.8 25.9939 13.383 26.0779 13.96C25.8981 13.7209 25.7164 13.4833 25.5329 13.247L25.5249 13.203C25.5249 13.192 25.4979 12.679 25.4739 12.557C25.4699 12.508 25.4579 12.493 25.5099 12.499C25.5649 12.545 25.5719 12.548 25.6069 12.564C25.6629 12.574 25.7119 12.479 25.6789 12.392L25.1619 11.44C25.1209 11.399 25.0669 11.355 25.0019 11.451C24.9616 11.4863 24.9292 11.5298 24.9072 11.5786C24.8851 11.6274 24.8737 11.6804 24.8739 11.734C24.8899 11.959 24.9289 12.189 24.9439 12.415L24.9659 12.537C24.9429 12.51 24.9149 12.476 24.9029 12.464C24.4639 12.002 25.1049 12.389 24.8189 12.032C24.5769 11.766 24.5069 11.683 24.2989 11.523C24.1949 11.456 24.1319 11.328 24.0979 11.546C24.0808 11.7372 24.0758 11.9292 24.0829 12.121C24.0829 12.213 24.1759 12.381 24.2569 12.481V12.481ZM15.3559 13.56C15.6079 13.664 15.7689 13.184 15.8729 12.658C15.9429 12.51 15.9969 12.494 16.0329 12.57C16.0239 13.27 16.0829 13.425 16.2629 13.638C16.6639 13.948 16.9959 13.677 17.0229 13.651L17.3349 13.339C17.4039 13.266 17.4969 13.261 17.5949 13.326C17.6909 13.412 17.6779 13.562 17.8819 13.666C18.0539 13.735 18.4219 13.682 18.5069 13.534C18.6219 13.338 18.6499 13.27 18.7019 13.196C18.7839 13.087 18.9239 13.136 18.9239 13.17C18.9109 13.231 18.8289 13.292 18.8849 13.401C18.9829 13.474 19.0049 13.427 19.0629 13.411C19.2669 13.313 19.4189 12.871 19.4189 12.871C19.4279 12.706 19.3359 12.72 19.2759 12.754C19.1979 12.801 19.1929 12.817 19.1149 12.865C19.0149 12.88 18.8219 12.946 18.7269 12.798C18.6289 12.62 18.6269 12.372 18.5529 12.193C18.5529 12.18 18.4229 11.91 18.5439 11.893C18.6049 11.904 18.7339 11.938 18.7549 11.83C18.8179 11.724 18.6179 11.422 18.4819 11.269C18.3629 11.139 18.1979 11.123 18.0389 11.256C17.9269 11.359 17.9429 11.473 17.9209 11.582C17.9028 11.6589 17.9028 11.739 17.921 11.8159C17.9393 11.8928 17.9752 11.9644 18.0259 12.025C18.1369 12.244 18.3399 12.527 18.2729 12.923C18.2729 12.923 18.1549 13.111 17.9479 13.087C17.8619 13.068 17.7219 13.031 17.6479 12.481C17.5919 12.064 17.6619 11.481 17.4849 11.208C17.4209 11.043 17.3749 10.884 17.2189 11.166C17.1769 11.277 16.9969 11.445 17.1279 11.792C17.2349 12.011 17.2779 12.368 17.2299 12.766C17.1559 12.879 17.1399 12.917 17.0429 13.03C16.9069 13.176 16.7599 13.139 16.6469 13.084C16.5409 13.013 16.4589 12.976 16.4109 12.75C16.4199 12.39 16.4399 11.8 16.3739 11.675C16.2769 11.481 16.1169 11.551 16.0479 11.61C15.7189 11.911 15.5569 12.418 15.4579 12.821C15.3669 13.115 15.2699 13.031 15.2019 12.912C15.0359 12.756 15.0249 11.539 14.8239 11.74C14.5009 12.654 15.0059 13.658 15.3559 13.56V13.56Z" fill="white"/>
<path d="M20.1369 15.524L20.0409 15.469L18.1599 15.46C18.0629 15.423 18.0919 15.391 18.1599 15.365C18.6089 15.304 19.4079 15.174 19.4609 14.407C19.4519 14.008 19.2889 13.746 18.7989 13.674C18.4399 13.702 18.1829 14.051 18.2239 14.434C18.2069 14.538 18.2579 14.74 18.1529 14.763C17.4619 14.826 16.7089 15.258 16.6839 15.568C16.6419 15.597 16.5479 15.513 16.5599 15.381C16.5266 14.8164 16.3641 14.2669 16.0849 13.775C15.8669 13.557 15.9349 13.629 15.7889 13.732C15.6949 13.84 15.6779 13.914 15.6829 14.129C15.6829 14.137 15.8589 14.628 16.0079 14.972C16.1069 15.325 16.1999 15.728 16.1329 16.109C15.9009 16.613 15.4339 17.065 14.9839 17.31C14.7519 17.385 14.5529 17.358 14.5039 17.306C14.3609 17.21 14.3679 17.033 14.3789 17.03C14.7579 16.765 15.1919 16.552 15.5319 15.839C15.6319 15.567 15.6619 15.402 15.5629 14.981C15.5354 14.8326 15.4672 14.6949 15.3659 14.583C15.4269 14.543 15.6019 14.676 15.6289 14.597C15.5782 14.3666 15.4635 14.1551 15.2979 13.987C15.1629 13.864 15.0159 13.85 14.8919 13.963C14.7519 14.041 14.7219 14.319 14.7889 14.563C14.8629 14.747 15.0639 14.778 15.2079 15.147C15.2079 15.155 15.2599 15.423 15.1859 15.528C15.1269 15.712 14.3619 16.313 14.3199 16.34C14.2989 16.366 14.3079 16.327 14.3049 16.227C14.2999 16.105 14.3539 15.817 14.3389 15.815C14.0899 15.976 14.0069 16.469 13.9619 16.615C13.3319 17.05 12.6189 17.374 12.2069 17.816C11.9919 18.151 13.6849 17.431 13.8819 17.344C13.9259 17.376 13.9209 17.527 14.0389 17.662C14.2149 17.9 14.5869 18.047 14.9519 17.956C15.5619 17.735 15.9149 17.319 16.2729 16.858C16.3239 16.783 16.4039 16.726 16.4779 16.783C16.7239 17.334 17.4349 17.724 18.3519 17.765C18.5649 17.506 18.4619 17.381 18.3759 17.327C18.3759 17.319 17.9229 17.147 17.8539 16.975C17.8119 16.819 17.9139 16.682 18.1179 16.578C18.7069 16.507 19.2859 16.428 19.8469 16.248C19.8529 16.06 19.9619 15.778 20.0369 15.656C20.1089 15.532 20.1479 15.569 20.1369 15.524V15.524ZM18.5899 14.352C18.6179 14.305 18.7109 14.307 18.7979 14.358C18.8849 14.408 18.9339 14.488 18.9049 14.535C18.8769 14.583 18.7829 14.58 18.6959 14.529C18.6089 14.479 18.5619 14.4 18.5899 14.352V14.352ZM17.8329 16.252C17.6309 16.321 17.4369 16.375 17.4369 16.667C17.5119 17.073 17.3339 16.934 17.2289 16.878C17.1049 16.789 16.7559 16.574 16.7059 16.11C16.6979 15.999 16.7849 15.906 16.9239 15.906C17.1329 15.963 17.4419 15.967 17.7099 15.995C17.9289 16.009 18.0379 16.181 17.8329 16.252V16.252ZM10.8659 11.747C11.0819 11.851 11.4899 11.807 11.4719 11.457C11.4719 11.426 11.4639 11.322 11.4609 11.294C11.4169 11.191 11.2969 11.216 11.2689 11.323C11.2599 11.358 11.2839 11.414 11.2529 11.432C11.2349 11.45 11.1659 11.439 11.1689 11.343C11.1689 11.312 11.1459 11.279 11.1329 11.26C11.1189 11.251 11.1109 11.248 11.0859 11.248C11.0559 11.249 11.0559 11.257 11.0399 11.283C11.0329 11.308 11.0229 11.334 11.0229 11.363C11.0189 11.397 11.0059 11.409 10.9809 11.415C10.9529 11.415 10.9589 11.418 10.9369 11.403C10.9229 11.388 10.9059 11.382 10.9059 11.357C10.9058 11.3278 10.9011 11.2988 10.8919 11.271C10.8799 11.255 10.8609 11.248 10.8389 11.242C10.7209 11.242 10.7129 11.377 10.7199 11.429C10.7089 11.438 10.7049 11.68 10.8659 11.747V11.747Z" fill="white"/>
<path d="M17.5119 14.027C17.5119 13.996 17.4889 13.964 17.4759 13.944C17.4619 13.935 17.4539 13.932 17.4289 13.932C17.3989 13.933 17.3999 13.941 17.3829 13.967C17.3759 13.993 17.3659 14.018 17.3659 14.047C17.3629 14.082 17.3489 14.094 17.3239 14.099C17.2959 14.099 17.3019 14.102 17.2789 14.088C17.2649 14.073 17.2479 14.067 17.2479 14.042C17.2479 14.0128 17.2432 13.9837 17.2339 13.956C17.2219 13.94 17.2029 13.933 17.1809 13.928C17.0629 13.928 17.0549 14.063 17.0609 14.114C17.0519 14.124 17.0469 14.365 17.2079 14.433C17.4249 14.536 17.9399 14.476 17.8139 14.143C17.8118 14.0882 17.8081 14.0336 17.8029 13.979C17.7589 13.876 17.6379 13.902 17.6109 14.008C17.6029 14.043 17.6269 14.099 17.5949 14.117C17.5789 14.135 17.5089 14.124 17.5119 14.027V14.027ZM20.9089 13.32C21.1249 13.424 21.5319 13.38 21.5139 13.031C21.5118 12.9762 21.5081 12.9216 21.5029 12.867C21.4589 12.764 21.3389 12.79 21.3119 12.896C21.3029 12.931 21.3269 12.987 21.2949 13.005C21.2769 13.023 21.2079 13.013 21.2109 12.916C21.2109 12.885 21.1879 12.852 21.1749 12.833C21.1609 12.824 21.1529 12.821 21.1269 12.821C21.0969 12.823 21.0979 12.83 21.0809 12.856C21.0739 12.882 21.0639 12.907 21.0639 12.936C21.0599 12.971 21.0469 12.983 21.0219 12.988C20.9939 12.988 20.9999 12.991 20.9769 12.977C20.9629 12.962 20.9469 12.956 20.9469 12.931C20.9468 12.9015 20.9421 12.8721 20.9329 12.844C20.9199 12.828 20.9019 12.821 20.8789 12.816C20.7609 12.816 20.7529 12.951 20.7599 13.002C20.7529 13.012 20.7479 13.253 20.9089 13.32V13.32ZM21.0549 11.968C21.1319 12.184 20.9959 12.39 21.0769 12.42C21.1499 12.454 21.2539 12.197 21.2919 11.96C21.3369 11.768 21.1999 11.375 21.0059 11.294C20.8879 11.266 20.7199 11.336 20.7739 11.494C20.7469 11.57 21.0119 11.828 21.0549 11.968V11.968ZM23.0499 17.032C23.2009 17.033 23.3749 16.687 23.4489 16.344C23.4899 15.872 23.4209 15.585 23.4089 15.307C23.3959 15.03 23.0959 12.915 23.0339 12.705C22.9609 12.308 23.3269 12.652 23.2869 12.421C23.1599 12.13 22.8449 11.707 22.7449 11.454C22.6849 11.346 22.7109 11.25 22.5769 11.426C22.4539 11.831 22.4109 12.161 22.4579 12.413C22.7759 14.073 23.1019 15.453 23.0499 17.032ZM26.8059 12.692C26.8409 12.8 26.7529 13.149 26.8259 13.181C26.8929 13.217 26.9869 12.94 27.0219 12.683C27.0409 12.542 26.9379 12.05 26.7609 11.962C26.6529 11.932 26.4999 12.007 26.5499 12.179C26.5249 12.262 26.7669 12.54 26.8059 12.692V12.692ZM13.6869 16.348C13.7519 16.375 13.8409 16.171 13.8749 15.982C13.8939 15.878 13.7939 15.517 13.6249 15.452C13.5209 15.43 13.3789 15.458 13.4229 15.612C13.4179 15.695 13.6529 15.795 13.6669 15.988C13.7009 16.068 13.6169 16.325 13.6869 16.348ZM9.13092 11.733C9.16392 11.816 9.09792 12.081 9.16692 12.106C9.22992 12.134 9.31892 11.922 9.35192 11.727C9.37092 11.619 9.35592 11.253 9.10592 11.178C9.00292 11.155 8.85992 11.212 8.90692 11.343C8.88292 11.405 9.09392 11.617 9.13092 11.733ZM14.0329 12.906C13.8419 13.01 13.7669 13.318 13.8869 13.497C13.9979 13.656 14.1739 13.597 14.1979 13.597C14.3859 13.62 14.4969 13.245 14.4969 13.245C14.4969 13.245 14.5029 13.14 14.2799 13.339C14.1859 13.357 14.1739 13.322 14.1509 13.268C14.1281 13.1701 14.1383 13.0675 14.1799 12.976C14.2119 12.883 14.1399 12.842 14.0329 12.906V12.906ZM15.4749 11.753C15.5057 11.734 15.5322 11.7086 15.5525 11.6786C15.5729 11.6486 15.5866 11.6147 15.5929 11.579C15.6219 11.433 15.4379 11.648 15.4149 11.485C15.3739 11.334 15.4919 11.272 15.6039 11.126C15.6079 11.025 15.6059 10.954 15.4689 11.036C15.3729 11.101 15.1809 11.299 15.1749 11.527C15.1689 11.656 15.1449 11.655 15.2299 11.737C15.2909 11.826 15.3519 11.817 15.4749 11.753V11.753ZM16.7739 11.831C16.8979 11.495 16.8979 11.353 16.9069 11.21C16.8689 10.993 16.7219 11 16.6249 11.241C16.5829 11.332 16.5339 11.811 16.5419 11.811C16.5089 11.954 16.6909 12.015 16.7739 11.831ZM24.9439 14.214C24.9439 14.214 23.9409 14.927 23.9169 14.952C23.8169 15.04 23.8669 15.352 23.9169 15.316C23.9879 15.344 24.9969 14.659 24.9769 14.579C25.0239 14.581 25.0469 14.178 24.9439 14.214V14.214ZM24.8209 16.148C24.8879 16.184 25.0649 15.965 25.0579 15.692C25.0779 15.551 25.0069 15.034 24.8309 14.946C24.7229 14.916 24.5789 15.008 24.6289 15.179C24.6039 15.261 24.7529 15.548 24.7919 15.7C24.8269 15.809 24.7479 16.116 24.8209 16.148V16.148ZM19.1409 17.644C19.1409 17.653 19.2259 17.726 19.3259 17.668C19.5359 17.587 19.6679 17.509 19.9619 17.444C20.0389 17.443 20.0339 17.236 19.9119 17.229C19.7529 17.237 19.6049 17.245 19.4459 17.371C19.3479 17.393 19.3319 17.334 19.3099 17.28C19.2859 17.147 19.3649 17.055 19.3479 16.956C19.3539 16.962 19.2569 16.873 19.1579 16.923C19.1529 16.923 18.9369 17.069 18.8679 17.171C18.8249 17.204 18.8299 17.232 18.8429 17.287C18.8759 17.363 18.9349 17.34 19.0009 17.304C19.0889 17.292 19.1309 17.35 19.1239 17.455C19.0819 17.588 19.1409 17.637 19.1409 17.644V17.644ZM25.6919 17.81C25.6589 17.867 25.6369 17.953 25.7389 17.98C25.9269 18.033 26.3599 17.751 26.3599 17.746C26.4299 17.693 26.4069 17.594 26.4009 17.594C26.3599 17.547 26.2679 17.574 26.2059 17.567C26.1769 17.567 26.0789 17.552 26.1259 17.466C26.159 17.4196 26.1852 17.3688 26.2039 17.315C26.2329 17.25 26.2079 17.207 26.1019 17.172C25.9949 17.152 25.9519 17.162 25.8329 17.172C25.7689 17.186 25.7469 17.214 25.7349 17.292C25.7399 17.41 25.8109 17.404 25.8849 17.451C25.9279 17.506 25.9559 17.556 25.8819 17.645C25.8119 17.71 25.7629 17.746 25.6919 17.81V17.81ZM25.4999 23H23.9999V22.5C23.9999 22.3674 23.9472 22.2402 23.8535 22.1465C23.7597 22.0527 23.6325 22 23.4999 22C23.3673 22 23.2401 22.0527 23.1464 22.1465C23.0526 22.2402 22.9999 22.3674 22.9999 22.5V23H10.9999C10.9999 23 10.9999 24 13.9999 24H22.9999V24.5C22.9999 24.6326 23.0526 24.7598 23.1464 24.8536C23.2401 24.9473 23.3673 25 23.4999 25C23.6325 25 23.7597 24.9473 23.8535 24.8536C23.9472 24.7598 23.9999 24.6326 23.9999 24.5V24H24.9999V24.5C24.9999 24.6326 25.0526 24.7598 25.1464 24.8536C25.2401 24.9473 25.3673 25 25.4999 25C25.6325 25 25.7597 24.9473 25.8535 24.8536C25.9472 24.7598 25.9999 24.6326 25.9999 24.5V23.5C25.9999 23.3674 25.9472 23.2402 25.8535 23.1465C25.7597 23.0527 25.6325 23 25.4999 23Z" fill="white"/>
</g>
<defs>
<clipPath id="clip0_133_5">
<rect width="36" height="36" fill="white"/>
</clipPath>
</defs>
</svg>
