<svg width="40" height="25" viewBox="0 0 40 25" fill="none" xmlns="http://www.w3.org/2000/svg">
<path d="M39.3833 1.92308C38.6133 0.777885 37.1967 0 35.5556 0H20V1.92308H39.3833ZM0 19.2308H40V21.1538H0V19.2308ZM20 11.5385H40V13.4615H20V11.5385ZM20 7.69231H40V9.61538H20V7.69231ZM0 15.3846H40V17.3077H0V15.3846ZM4.44444 25H35.5556C37.1967 25 38.6133 24.2221 39.3833 23.0769H0.616667C1.38667 24.2221 2.80333 25 4.44444 25ZM20 3.84615H40V5.76923H20V3.84615Z" fill="#B22334"/>
<path d="M0.0755556 21.8068C0.0944445 21.8962 0.115556 21.9856 0.141111 22.0731C0.17 22.1702 0.205556 22.2635 0.243333 22.3577C0.342222 22.6068 0.462222 22.8471 0.613333 23.0721L0.616667 23.0769H39.3833L39.3856 23.0731C39.5347 22.8464 39.6582 22.6078 39.7544 22.3606C39.8276 22.1801 39.8841 21.995 39.9233 21.8068C39.9689 21.5952 40 21.3779 40 21.1539H0C0 21.3779 0.0311111 21.5943 0.0755556 21.8068ZM0 17.3077H40V19.2308H0V17.3077ZM0 13.4616V15.3846H40V13.4616H20H0ZM20 9.6154H40V11.5385H20V9.6154ZM20 5.76925H40V7.69233H20V5.76925ZM0.616667 1.9231L0.613333 1.9279L0.616667 1.9231ZM0.142222 2.92694C0.17 2.82886 0.208889 2.7356 0.244444 2.64137C0.205859 2.7353 0.171756 2.83058 0.142222 2.92694V2.92694ZM20 3.84617H40C40 3.62213 39.9689 3.40483 39.9233 3.19233C39.8844 3.00397 39.8276 2.81872 39.7533 2.63848C39.657 2.39022 39.5331 2.15064 39.3833 1.9231H20V3.84617Z" fill="#EEEEEE"/>
<path d="M20 0H4.44444C3.2657 0 2.13524 0.405218 1.30175 1.12651C0.468253 1.84781 0 2.82609 0 3.84615L0 13.4615H20V0Z" fill="#3C3B6E"/>
<path d="M2.22339 2.62117L2.91006 3.0529L2.64783 3.75002L3.33339 3.31925L4.02006 3.75002L3.75783 3.0529L4.4445 2.62117H3.59561L3.33339 1.9231L3.07228 2.62117H2.22339ZM4.44561 4.54425L5.13228 4.97598L4.87006 5.6731L5.55561 5.24233L6.24228 5.6731L5.98006 4.97598L6.66672 4.54425H5.81783L5.55561 3.84617L5.2945 4.54425H4.44561ZM8.89006 4.54425L9.57672 4.97598L9.3145 5.6731L10.0001 5.24233L10.6867 5.6731L10.4245 4.97598L11.1112 4.54425H10.2623L10.0001 3.84617L9.73895 4.54425H8.89006ZM13.3345 4.54425L14.0212 4.97598L13.7589 5.6731L14.4445 5.24233L15.1312 5.6731L14.8689 4.97598L15.5556 4.54425H14.7067L14.4445 3.84617L14.1834 4.54425H13.3345ZM4.44561 8.3904L5.13228 8.82213L4.87006 9.51925L5.55561 9.08848L6.24228 9.51925L5.98006 8.82213L6.66672 8.3904H5.81783L5.55561 7.69233L5.2945 8.3904H4.44561ZM8.89006 8.3904L9.57672 8.82213L9.3145 9.51925L10.0001 9.08848L10.6867 9.51925L10.4245 8.82213L11.1112 8.3904H10.2623L10.0001 7.69233L9.73895 8.3904H8.89006ZM13.3345 8.3904L14.0212 8.82213L13.7589 9.51925L14.4445 9.08848L15.1312 9.51925L14.8689 8.82213L15.5556 8.3904H14.7067L14.4445 7.69233L14.1834 8.3904H13.3345ZM6.66783 2.62117L7.3545 3.0529L7.09228 3.75002L7.77783 3.31925L8.4645 3.75002L8.20228 3.0529L8.88894 2.62117H8.04006L7.77783 1.9231L7.51672 2.62117H6.66783ZM11.1123 2.62117L11.7989 3.0529L11.5367 3.75002L12.2223 3.31925L12.9089 3.75002L12.6467 3.0529L13.3334 2.62117H12.4845L12.2223 1.9231L11.9612 2.62117H11.1123ZM15.5567 2.62117L16.2434 3.0529L15.9812 3.75002L16.6667 3.31925L17.3534 3.75002L17.0912 3.0529L17.7778 2.62117H16.9289L16.6667 1.9231L16.4056 2.62117H15.5567ZM2.22339 6.46733L2.91006 6.89906L2.64783 7.59617L3.33339 7.1654L4.02006 7.59617L3.75783 6.89906L4.4445 6.46733H3.59561L3.33339 5.76925L3.07228 6.46733H2.22339ZM7.09228 7.59617L7.77783 7.1654L8.4645 7.59617L8.20228 6.89906L8.88894 6.46733H8.04006L7.77783 5.76925L7.51672 6.46733H6.66783L7.3545 6.89906L7.09228 7.59617ZM11.1123 6.46733L11.7989 6.89906L11.5367 7.59617L12.2223 7.1654L12.9089 7.59617L12.6467 6.89906L13.3334 6.46733H12.4845L12.2223 5.76925L11.9612 6.46733H11.1123ZM15.5567 6.46733L16.2434 6.89906L15.9812 7.59617L16.6667 7.1654L17.3534 7.59617L17.0912 6.89906L17.7778 6.46733H16.9289L16.6667 5.76925L16.4056 6.46733H15.5567ZM2.22339 10.3135L2.91006 10.7452L2.64783 11.4423L3.33339 11.0116L4.02006 11.4423L3.75783 10.7452L4.4445 10.3135H3.59561L3.33339 9.6154L3.07228 10.3135H2.22339ZM7.09228 11.4423L7.77783 11.0116L8.4645 11.4423L8.20228 10.7452L8.88894 10.3135H8.04006L7.77783 9.6154L7.51672 10.3135H6.66783L7.3545 10.7452L7.09228 11.4423ZM11.1123 10.3135L11.7989 10.7452L11.5367 11.4423L12.2223 11.0116L12.9089 11.4423L12.6467 10.7452L13.3334 10.3135H12.4845L12.2223 9.6154L11.9612 10.3135H11.1123ZM15.5567 10.3135L16.2434 10.7452L15.9812 11.4423L16.6667 11.0116L17.3534 11.4423L17.0912 10.7452L17.7778 10.3135H16.9289L16.6667 9.6154L16.4056 10.3135H15.5567Z" fill="white"/>
</svg>

